/* XPM */
static char * fairh_xpm[] = {
"42 42 2 1",
" 	c None",
".	c #81807E",
"                                          ",
"                                          ",
"                                          ",
"                                          ",
"                                          ",
"                                          ",
"                                          ",
"                                          ",
"                                          ",
"                                          ",
"                                          ",
"            .....  ......  .....          ",
"            .....  ......  .....          ",
"            .....  ......  .....          ",
"            .....  ......  .....          ",
"            .....  ......  .....          ",
"            .....  ......  .....          ",
"            .....  ......  .....          ",
"            .....  ......  .....          ",
"            .....  ......  .....          ",
"            .....  ......  .....          ",
"                                          ",
"                                          ",
"            .........  .........          ",
"            .........  .........          ",
"            .........  .........          ",
"            .........  .........          ",
"            .........  .........          ",
"            .........  .........          ",
"            .........  .........          ",
"                                          ",
"                                          ",
"                                          ",
"                                          ",
"                                          ",
"                                          ",
"                                          ",
"                                          ",
"                                          ",
"                                          ",
"                                          ",
"                                          "};
