/* XPM */
static char *spiral[] = {
/* columns rows colors chars-per-pixel */
"24 24 2 1 ",
"  c #81807E",
". c None",
/* pixels */
"........................",
"........................",
"........................",
"........................",
"........................",
"........................",
"......     .     .......",
"......     .     .......",
"......     .     .......",
"......     .............",
"......     .  .  .......",
"......     .  .  .......",
"......     .  .  .......",
"......     ....  .......",
"......     .  .  .......",
"......     .  .  .......",
"......     .  .  .......",
"........................",
"........................",
"........................",
"........................",
"........................",
"........................",
"........................"
};
