/* XPM */
static char * bottom_inactive_xpm[] = {
"5 3 3 1",
" 	c None",
".	c #E2E2E3",
"+	c #E1E2E3",
"...++",
".++++",
"+++++"};
