/* XPM */
static char * close_prelight_xpm[] = {
"24 26 15 1",
" 	c None",
".	c #E5E5E5",
"+	c #EFADB7",
"@	c #ED7685",
"#	c #ED5B6C",
"$	c #E7E3E5",
"%	c #ED7181",
"&	c #ED5466",
"*	c #ED7180",
"=	c #EFAEB8",
"-	c #ED5769",
";	c #ED5869",
">	c #ED707F",
",	c #ED7483",
"'	c #ED5A6C",
"                        ",
"                        ",
"                        ",
"                        ",
"                        ",
"                        ",
"                        ",
"........................",
".........+@##@+.........",
".......$%&&&&&&%$.......",
".......%&&&&&&&&*.......",
"......=&&&&&&&&&&=......",
"......@&&&&&&&&&&@......",
"......-&&&&&&&&&&;......",
"......-&&&&&&&&&&#......",
"......@&&&&&&&&&&@......",
"......+&&&&&&&&&&+......",
".......*&&&&&&&&>.......",
".......$%&&&&&&*$.......",
".........+,'',+.........",
"........................",
"........................",
"........................",
"........................",
"........................",
"........................"};
