/* XPM */
static char * hide_prelight_xpm[] = {
"24 26 12 1",
" 	c None",
".	c #E5E5E5",
"+	c #CEE5B9",
"@	c #B1DB87",
"#	c #A3D66F",
"$	c #AFDA83",
"%	c #A0D569",
"&	c #AEDA82",
"*	c #A1D56C",
"=	c #A2D56C",
"-	c #CDE5B8",
";	c #B0DA85",
"                        ",
"                        ",
"                        ",
"                        ",
"                        ",
"                        ",
"                        ",
"........................",
".........+@##@+.........",
"........$%%%%%%$........",
".......$%%%%%%%%&.......",
"......+%%%%%%%%%%+......",
"......@%%%%%%%%%%@......",
"......*%%%%%%%%%%=......",
"......*%%%%%%%%%%#......",
"......@%%%%%%%%%%@......",
"......+%%%%%%%%%%+......",
".......&%%%%%%%%&.......",
"........$%%%%%%&........",
".........-;##;-.........",
"........................",
"........................",
"........................",
"........................",
"........................",
"........................"};
