/* XPM */
static char * hide_active_xpm[] = {
"24 26 9 1",
" 	c None",
".	c #E5E5E5",
"+	c #D8E9CB",
"@	c #B4DC8C",
"#	c #A3D66F",
"$	c #C7E2AD",
"%	c #A0D569",
"&	c #A4D670",
"*	c #D8E9CA",
"                        ",
"                        ",
"                        ",
"                        ",
"                        ",
"                        ",
"                        ",
"........................",
"........................",
".........+@##@+.........",
"........$%%%%%%$........",
".......+%%%%%%%%+.......",
".......@%%%%%%%%@.......",
".......&%%%%%%%%&.......",
".......&%%%%%%%%#.......",
".......@%%%%%%%%@.......",
".......+%%%%%%%%+.......",
"........$%%%%%%$........",
".........*@##@+.........",
"........................",
"........................",
"........................",
"........................",
"........................",
"........................",
"........................"};
