/* XPM */
static char * hide_inactive_xpm[] = {
"24 26 6 1",
" 	c None",
".	c #E5E5E5",
"+	c #D5D8E0",
"@	c #CDD1DA",
"#	c #D4D6DA",
"$	c #CCD0D9",
"                        ",
"                        ",
"                        ",
"                        ",
"                        ",
"                        ",
"                        ",
"........................",
"........................",
"..........+@@+..........",
"........#$$$$$$#........",
"........$$$$$$$$........",
".......+$$$$$$$$+.......",
".......@$$$$$$$$@.......",
".......@$$$$$$$$@.......",
".......+$$$$$$$$+.......",
"........$$$$$$$$........",
"........#$$$$$$#........",
"..........+@@+..........",
"........................",
"........................",
"........................",
"........................",
"........................",
"........................",
"........................"};
