/* XPM */
static char * maximize_toggled_prelight_xpm[] = {
"24 26 13 1",
" 	c None",
".	c #E5E5E5",
"+	c #D3C8F1",
"@	c #BBA7ED",
"#	c #AF96EB",
"$	c #B8A4ED",
"%	c #AC92EB",
"&	c #B8A3ED",
"*	c #AD94EB",
"=	c #B8A3EC",
"-	c #D2C8F1",
";	c #BAA5ED",
">	c #AE96EB",
"                        ",
"                        ",
"                        ",
"                        ",
"                        ",
"                        ",
"........................",
"........................",
".........+@##@+.........",
"........$%%%%%%$........",
".......$%%%%%%%%&.......",
"......+%%%%%%%%%%+......",
"......@%%%%%%%%%%@......",
"......*%%%%%%%%%%*......",
"......*%%%%%%%%%%#......",
"......@%%%%%%%%%%@......",
"......+%%%%%%%%%%+......",
".......&%%%%%%%%=.......",
"........$%%%%%%&........",
".........-;>>;-.........",
"........................",
"........................",
"........................",
"........................",
"........................",
"........................"};
