/* XPM */
static char * right_inactive_xpm[] = {
"3 5 5 1",
" 	c None",
".	c #E2E2E3",
"+	c #E1E2E2",
"@	c #E0E1E2",
"#	c #E1E2E3",
".+@",
"..#",
"..#",
"..#",
"..#"};
