/* XPM */
static char * top_left_active_xpm[] = {
"5 26 8 1",
" 	c None",
".	c #E5E5E5",
"+	c #E6E6E7",
"@	c #E5E5E6",
"#	c #E4E5E5",
"$	c #E6E6E6",
"%	c #E3E5E6",
"&	c #E6E7E7",
"  ..+",
" .+@.",
"..#..",
"$%...",
"&@...",
"@....",
".....",
".....",
".....",
".....",
".....",
".....",
".....",
".....",
".....",
".....",
".....",
".....",
".....",
".....",
".....",
".....",
".....",
".....",
".....",
"....."};
