/* XPM */
static char * top_right_active_xpm[] = {
"5 26 6 1",
" 	c None",
".	c #E6E6E7",
"+	c #E6E6E6",
"@	c #E5E5E5",
"#	c #E5E5E6",
"$	c #E7E7E8",
".+@  ",
"#.#@ ",
"@+@.@",
"@@@@$",
"@@@@@",
"@@@@#",
"@@@@@",
"@@@@@",
"@@@@@",
"@@@@@",
"@@@@@",
"@@@@@",
"@@@@@",
"@@@@@",
"@@@@@",
"@@@@@",
"@@@@@",
"@@@@@",
"@@@@@",
"@@@@@",
"@@@@@",
"@@@@@",
"@@@@@",
"@@@@@",
"@@@@@",
"@@@@@"};
