/* XPM */
static char *sticky_active[] = {
/* columns rows colors chars-per-pixel */
"29 32 26 1 ",
"  c #2D2D2C",
". c #2E2E2C",
"X c #443D2A",
"o c #453D2A",
"O c #6B5726",
"+ c #6C5826",
"@ c #6E5926",
"# c #6F5A26",
"$ c #705B25",
"% c #725C25",
"& c #957322",
"* c #987621",
"= c #9C7821",
"- c #AB821F",
"; c #AB831F",
": c #BE8F1D",
"> c #BF901D",
", c #C1921D",
"< c #C2931D",
"1 c #C5941D",
"2 c #C5951D",
"3 c #E3A919",
"4 c #E2A81A",
"5 c #E5AA19",
"6 c #F6B618",
"7 c None",
/* pixels */
"77777777777777777777777777777",
"77777777777777777777777777777",
"77777777777777777777777777777",
"77777777777777777777777777777",
"77777777777777777777777777777",
"77777777777777777777777777777",
"77777777777777777777777777777",
"77777777777777777777777777777",
"77777777777777777777777777777",
"77777777777777777777777777777",
"77777777777777777777777777777",
"777777777777+:44,+77777777777",
"77777777777&666666*7777777777",
"7777777777O66666666+777777777",
"7777777777,66;oX-662777777777",
"7777777777566o..o665777777777",
"7777777777566X77o665777777777",
"7777777777,66;oX-662777777777",
"7777777777+66666666$777777777",
"77777777777*666666=7777777777",
"777777777777$,55,$77777777777",
"77777777777777777777777777777",
"77777777777777777777777777777",
"77777777777777777777777777777",
"77777777777777777777777777777",
"77777777777777777777777777777",
"77777777777777777777777777777",
"77777777777777777777777777777",
"77777777777777777777777777777",
"77777777777777777777777777777",
"77777777777777777777777777777",
"77777777777777777777777777777"
};
