/* XPM */
static char * close_xpm[] = {
"18 18 19 1",
" 	c None",
".	c None",
"+	c #673731",
"@	c #B24537",
"#	c #D34B3A",
"$	c #B34537",
"%	c #693831",
"&	c #8C3E34",
"*	c #E64F3C",
"=	c #8F3F35",
"-	c #663731",
";	c #B64638",
">	c #B94638",
",	c #D64C3A",
"'	c #6B3832",
")	c #933F35",
"!	c #B54638",
"~	c #D44B3A",
"{	c #6C3832",
"                  ",
" ................ ",
" ................ ",
" ................ ",
" .....+@##$%..... ",
" ....&******=.... ",
" ...-********%... ",
" ...;********>... ",
" ...,********,... ",
" ...,********,... ",
" ...;********>... ",
" ...+********'... ",
" ....=******).... ",
" .....'!~~;{..... ",
" ................ ",
" ................ ",
" ................ ",
"                  "};
