/* XPM */
static char * ontop_inactive_xpm[] = {
"18 18 3 1",
" 	c None",
".	c None",
"+	c #5E5E5E",
"                  ",
" ................ ",
" ................ ",
" ................ ",
" ................ ",
" .......++....... ",
" ......++++...... ",
" .....++++++..... ",
" ....++++++++.... ",
" ...+++.++.+++... ",
" .......++....... ",
" .......++....... ",
" .......++....... ",
" ................ ",
" ................ ",
" ................ ",
" ................ ",
"                  "};
