/* XPM */
static char * fairh_xpm[] = {
"16 16 2 1",
" 	c None",
".	c #81807E",
"                ",
"                ",
"                ",
"   .. .. ..     ",
"   .. .. ..     ",
"   .. .. ..     ",
"   .. .. ..     ",
"                ",
"   .. .. ..     ",
"   .. .. ..     ",
"   .. .. ..     ",
"   .. .. ..     ",
"                ",
"                ",
"                ",
"                "};
