/* XPM */
static char * floating_xpm[] = {
"24 24 2 1",
" 	c None",
".	c #81807E",
"                        ",
"                        ",
"                        ",
"                        ",
"                        ",
"                        ",
"       ..........       ",
"       ..........       ",
"       ..........       ",
"       ..........       ",
"       ..........       ",
"            .....       ",
"      ..... .....       ",
"      ..... .....       ",
"      ..... .....       ",
"      ..... .....       ",
"      .....             ",
"                        ",
"                        ",
"                        ",
"                        ",
"                        ",
"                        ",
"                        "};
