/* XPM */
static char * floating_xpm[] = {
"24 24 4 1",
" 	c None",
".	c #82817F",
"+	c #81807E",
"@	c #82817E",
"                        ",
"                        ",
"                        ",
"                        ",
"                        ",
"                        ",
"       ..........       ",
"       +++@@.....       ",
"       .@+++++++@       ",
"       ..@@@+++++       ",
"       ++++++++++       ",
"            ++++@       ",
"      +++++ +++@.       ",
"      +++++ ++...       ",
"      ..... .....       ",
"      ..... .....       ",
"      .....             ",
"                        ",
"                        ",
"                        ",
"                        ",
"                        ",
"                        ",
"                        "};
