/* XPM */
static char * close_prelight_xpm[] = {
"16 16 41 1",
" 	c None",
".	c #2D2D2D",
"+	c #67403C",
"@	c #AD4E42",
"#	c #CD5547",
"$	c #CC5648",
"%	c #AF5044",
"&	c #6A413C",
"*	c #8A473F",
"=	c #DD5A4A",
"-	c #DD5D4D",
";	c #DD5E4E",
">	c #DE5F4F",
",	c #8E4B42",
"'	c #66403B",
")	c #DE6152",
"!	c #DF6454",
"~	c #E06555",
"{	c #B14F42",
"]	c #E06556",
"^	c #E36959",
"/	c #E46A5A",
"(	c #B45448",
"_	c #CF5647",
":	c #E66C5D",
"<	c #E76E5F",
"[	c #CF5B4C",
"}	c #CE5748",
"|	c #EB7263",
"1	c #CF5C4D",
"2	c #B25044",
"3	c #B6564A",
"4	c #68413C",
"5	c #6D423C",
"6	c #935047",
"7	c #6C423C",
"8	c #B15348",
"9	c #CE5A4C",
"0	c #CE5B4E",
"a	c #B2554A",
"b	c #6E423D",
"................",
"................",
"................",
".....+@#$%&.....",
"....*=-;>;-,....",
"...'=;)!~!);&...",
"...{-)]^/^])(...",
"..._;!^:<:^![...",
"...}>~/<|</~1...",
"...2;!^:<:^!3...",
"...4-)]^/^])5...",
"....,;)!~!)6....",
".....7890ab.....",
"................",
"................",
"................"};
