/* XPM */
static char * hide_prelight_xpm[] = {
"16 16 41 1",
" 	c None",
".	c #2D2D2D",
"+	c #6C6134",
"@	c #B6952E",
"#	c #D8AC2D",
"$	c #B89630",
"%	c #6F6335",
"&	c #917A30",
"*	c #E9B92E",
"=	c #E9BA31",
"-	c #E9BB34",
";	c #E9BC35",
">	c #947F35",
",	c #6A6034",
"'	c #E9BB33",
")	c #EABD39",
"!	c #EBBE3D",
"~	c #ECBF3E",
"{	c #6F6234",
"]	c #BB982D",
"^	c #ECBF3F",
"/	c #EFC144",
"(	c #F0C246",
"_	c #BE9C34",
":	c #DAAE2D",
"<	c #F2C44A",
"[	c #F4C64D",
"}	c #DAB135",
"|	c #F8C852",
"1	c #DBB136",
"2	c #BB982F",
"3	c #BF9E37",
"4	c #6D6134",
"5	c #726434",
"6	c #9A853B",
"7	c #716434",
"8	c #BB9A34",
"9	c #D8B035",
"0	c #D9B036",
"a	c #BC9C37",
"b	c #746634",
"................",
"................",
"................",
".....+@##$%.....",
"....&*=-;-=>....",
"...,*')!~!)'{...",
"...]=)^/(/^)_...",
"...:-!/<[</!}...",
"...:;~([|[(~1...",
"...2-!/<[</!3...",
"...4=)^/(/^)5...",
"....>')!~!)6....",
".....7890ab.....",
"................",
"................",
"................"};
