/* XPM */
static char * hide_active_xpm[] = {
"16 16 21 1",
" 	c None",
".	c #2D2D2D",
"+	c #6C5826",
"@	c #BE8F1D",
"#	c #E2A81A",
"$	c #BF901D",
"%	c #6F5A26",
"&	c #957322",
"*	c #F6B618",
"=	c #987621",
"-	c #6B5726",
";	c #6E5926",
">	c #C1921D",
",	c #C5941D",
"'	c #E5AA19",
")	c #C2931D",
"!	c #C5951D",
"~	c #705B25",
"{	c #9C7821",
"]	c #E3A919",
"^	c #725C25",
"................",
"................",
"................",
".....+@##$%.....",
"....&******=....",
"...-********;...",
"...>********,...",
"...'********'...",
"...'********'...",
"...)********!...",
"...+********~...",
"....=******{....",
".....~>]]>^.....",
"................",
"................",
"................"};
