/* XPM */
static char * hide_inactive_xpm[] = {
"16 16 40 1",
" 	c None",
".	c #2D2D2D",
"+	c #6F5626",
"@	c #BB8A1E",
"#	c #DCA01A",
"$	c #DBA01A",
"%	c #BC8A1E",
"&	c #705826",
"*	c #947022",
"=	c #EEAC19",
"-	c #EBAA18",
";	c #E9A918",
">	c #967121",
",	c #6D5526",
"'	c #EAA918",
")	c #E6A718",
"!	c #E3A517",
"~	c #E2A417",
"{	c #6F5725",
"]	c #BF8D1D",
"^	c #E0A317",
"/	c #DCA116",
"(	c #DBA016",
"_	c #DFA21A",
":	c #D79E16",
"<	c #D49C15",
"[	c #DA9E19",
"}	c #DEA21A",
"|	c #CE9914",
"1	c #DA9D19",
"2	c #BF8C1D",
"3	c #BD8B1C",
"4	c #6E5626",
"5	c #715825",
"6	c #987121",
"7	c #BB8A1D",
"8	c #D89D19",
"9	c #D79C19",
"0	c #BA881C",
"a	c #725925",
"................",
"................",
"................",
".....+@#$%&.....",
"....*=-;;;->....",
"...,=')!~!)'{...",
"...]-)^/(/^)]...",
"..._;!/:<:/![...",
"...};~(<|<(~1...",
"...2;!/:<:/!3...",
"...4-)^/(/^)5...",
"....>')!~!)6....",
".....57890a.....",
"................",
"................",
"................"};
