/* XPM */
static char * maximize_pressed_xpm[] = {
"16 16 41 1",
" 	c None",
".	c #2D2D2D",
"+	c #345C40",
"@	c #359658",
"#	c #36B062",
"$	c #36AF62",
"%	c #359759",
"&	c #335D41",
"*	c #34794C",
"=	c #36BC68",
"-	c #36B967",
";	c #35B866",
">	c #35B765",
",	c #35794C",
"'	c #345B40",
")	c #35B966",
"!	c #34B464",
"~	c #33B262",
"{	c #32B162",
"]	c #325D40",
"^	c #34995A",
"/	c #31B061",
"(	c #2FAC5F",
"_	c #2EAB5E",
":	c #349758",
"<	c #36B263",
"[	c #2BA85D",
"}	c #29A65B",
"|	c #34AC60",
"1	c #36B163",
"2	c #26A259",
"3	c #34AB60",
"4	c #35995A",
"5	c #349658",
"6	c #335C40",
"7	c #315E41",
"8	c #34794B",
"9	c #335E41",
"0	c #349557",
"a	c #34AA60",
"b	c #349356",
"................",
"................",
"................",
".....+@#$%&.....",
"....*=-;>;-,....",
"...'=)!~{~!)]...",
"...^-!/(_(/!:...",
"...<;~([}[(~|...",
"...1>{_}2}_{3...",
"...4;~([}[(~5...",
"...6-!/(_(/!7...",
"....,)!~{~!8....",
".....903ab7.....",
"................",
"................",
"................"};
