/* XPM */
static char * maximize_active_xpm[] = {
"16 16 21 1",
" 	c None",
".	c #2D2D2D",
"+	c #2D5E41",
"@	c #2E9E5C",
"#	c #2EBA68",
"$	c #2E9F5D",
"%	c #2D6042",
"&	c #2E7E4F",
"*	c #2FCA6F",
"=	c #2E8050",
"-	c #2D5D41",
";	c #2EA15D",
">	c #2EA35E",
",	c #2EBD69",
"'	c #2EA15E",
")	c #2EA45F",
"!	c #2D6143",
"~	c #2E8351",
"{	c #2EA05D",
"]	c #2EBB68",
"^	c #2D6343",
"................",
"................",
"................",
".....+@##$%.....",
"....&******=....",
"...-********%...",
"...;********>...",
"...,********,...",
"...,********,...",
"...'********)...",
"...+********!...",
"....=******~....",
".....!{]];^.....",
"................",
"................",
"................"};
