/* XPM */
static char * title_5_active_xpm[] = {
"2 26 3 1",
" 	c None",
".	c #393739",
"+	c #464346",
"..",
"++",
"++",
"++",
"++",
"++",
"++",
"++",
"++",
"++",
"++",
"++",
"++",
"++",
"++",
"++",
"++",
"++",
"++",
"++",
"++",
"++",
"++",
"++",
"++",
".."};
