/* XPM */
static char * indicator175_xpm[] = {
"175 2 2 1",
" 	c None",
".	c #606F81",
"   .........................................................................................................................................................................   ",
"   .........................................................................................................................................................................   "};
