/* XPM */
static char *close[] = {
/* columns rows colors chars-per-pixel */
"29 32 18 1 ",
"  c #663731",
". c #673731",
"X c #693831",
"o c #6B3832",
"O c #6C3832",
"+ c #8C3E34",
"@ c #8F3F35",
"# c #933F35",
"$ c #B24537",
"% c #B34537",
"& c #B54638",
"* c #B64638",
"= c #B94638",
"- c #D34B3A",
"; c #D44B3A",
": c #D64C3A",
"> c #E64F3C",
", c None",
/* pixels */
",,,,,,,,,,,,,,,,,,,,,,,,,,,,,",
",,,,,,,,,,,,,,,,,,,,,,,,,,,,,",
",,,,,,,,,,,,,,,,,,,,,,,,,,,,,",
",,,,,,,,,,,,,,,,,,,,,,,,,,,,,",
",,,,,,,,,,,,,,,,,,,,,,,,,,,,,",
",,,,,,,,,,,,,,,,,,,,,,,,,,,,,",
",,,,,,,,,,,,,,,,,,,,,,,,,,,,,",
",,,,,,,,,,,,,,,,,,,,,,,,,,,,,",
",,,,,,,,,,,,,,,,,,,,,,,,,,,,,",
",,,,,,,,,,,,,,,,,,,,,,,,,,,,,",
",,,,,,,,,,,,,,,,,,,,,,,,,,,,,",
",,,,,,,,,,,, $--%X,,,,,,,,,,,",
",,,,,,,,,,,+>>>>>>#,,,,,,,,,,",
",,,,,,,,,, >>>>>>>>X,,,,,,,,,",
",,,,,,,,,,*>>>>>>>>=,,,,,,,,,",
",,,,,,,,,,:>>>>>>>>:,,,,,,,,,",
",,,,,,,,,,:>>>>>>>>:,,,,,,,,,",
",,,,,,,,,,*>>>>>>>>=,,,,,,,,,",
",,,,,,,,,, >>>>>>>>X,,,,,,,,,",
",,,,,,,,,,,#>>>>>>#,,,,,,,,,,",
",,,,,,,,,,,,X*;;*O,,,,,,,,,,,",
",,,,,,,,,,,,,,,,,,,,,,,,,,,,,",
",,,,,,,,,,,,,,,,,,,,,,,,,,,,,",
",,,,,,,,,,,,,,,,,,,,,,,,,,,,,",
",,,,,,,,,,,,,,,,,,,,,,,,,,,,,",
",,,,,,,,,,,,,,,,,,,,,,,,,,,,,",
",,,,,,,,,,,,,,,,,,,,,,,,,,,,,",
",,,,,,,,,,,,,,,,,,,,,,,,,,,,,",
",,,,,,,,,,,,,,,,,,,,,,,,,,,,,",
",,,,,,,,,,,,,,,,,,,,,,,,,,,,,",
",,,,,,,,,,,,,,,,,,,,,,,,,,,,,",
",,,,,,,,,,,,,,,,,,,,,,,,,,,,,"
};
