/* XPM */
static char *floating_active[] = {
/* columns rows colors chars-per-pixel */
"29 32 45 1 ",
"  c #314037",
". c #314038",
"X c #324038",
"o c #31664D",
"O c #31674D",
"+ c #32674E",
"@ c #33684E",
"# c #33694F",
"$ c #336A4F",
"% c #356B4F",
"& c #346C4F",
"* c #32845A",
"= c #36885E",
"- c #3B8F64",
"; c #3E9364",
": c #34A167",
"> c #35A369",
", c #33A568",
"< c #35A669",
"1 c #39A76C",
"2 c #39A96E",
"3 c #3CA96F",
"4 c #3CAB71",
"5 c #36BC73",
"6 c #36BD74",
"7 c #36BF75",
"8 c #37BF76",
"9 c #3CBF79",
"0 c #3DBF7A",
"q c #429366",
"w c #479569",
"e c #3CC17A",
"r c #3DC17B",
"t c #37CB7B",
"y c #3BCC7D",
"u c #3CCC7E",
"i c #3DCC7F",
"p c #3ECD80",
"a c #42CE82",
"s c #46CF85",
"d c #48CF85",
"f c #49D086",
"g c #4FD189",
"h c #52D28B",
"j c None",
/* pixels */
"jjjjjjjjjjjjjjjjjjjjjjjjjjjjj",
"jjjjjjjjjjjjjjjjjjjjjjjjjjjjj",
"jjjjjjjjjjjjjjjjjjjjjjjjjjjjj",
"jjjjjjjjjjjjjjjjjjjjjjjjjjjjj",
"jjjjjjjjjjjjjjjjjjjjjjjjjjjjj",
"jjjjjjjjjjjjjjjjjjjjjjjjjjjjj",
"jjjjjjjjjjjjjjjjjjjjjjjjjjjjj",
"jjjjjjjjjjjjjjjjjjjjjjjjjjjjj",
"jjjjjjjjjjjjjjjjjjjjjjjjjjjjj",
"jjjjjjjjjjjjjjjjjjjjjjjjjjjjj",
"jjjjjjjjjjjjjjjjjjjjjjjjjjjjj",
"jjjjjjjjjjjjo:57>#jjjjjjjjjjj",
"jjjjjjjjjjj*tyipiy=jjjjjjjjjj",
"jjjjjjjjjjotiasdsai#jjjjjjjjj",
"jjjjjjjjjj,ya; .qfa2jjjjjjjjj",
"jjjjjjjjjj7is jj gsejjjjjjjjj",
"jjjjjjjjjj7pd.jj hsejjjjjjjjj",
"jjjjjjjjjj<isq. whs4jjjjjjjjj",
"jjjjjjjjjjoyafhhhfa%jjjjjjjjj",
"jjjjjjjjjjj=iasdsa-jjjjjjjjjj",
"jjjjjjjjjjjj#2992%jjjjjjjjjjj",
"jjjjjjjjjjjjjjjjjjjjjjjjjjjjj",
"jjjjjjjjjjjjjjjjjjjjjjjjjjjjj",
"jjjjjjjjjjjjjjjjjjjjjjjjjjjjj",
"jjjjjjjjjjjjjjjjjjjjjjjjjjjjj",
"jjjjjjjjjjjjjjjjjjjjjjjjjjjjj",
"jjjjjjjjjjjjjjjjjjjjjjjjjjjjj",
"jjjjjjjjjjjjjjjjjjjjjjjjjjjjj",
"jjjjjjjjjjjjjjjjjjjjjjjjjjjjj",
"jjjjjjjjjjjjjjjjjjjjjjjjjjjjj",
"jjjjjjjjjjjjjjjjjjjjjjjjjjjjj",
"jjjjjjjjjjjjjjjjjjjjjjjjjjjjj"
};
