/* XPM */
static char * floating_active_xpm[] = {
"17 20 45 1",
" 	c None",
".	c #31674D",
"+	c #34A167",
"@	c #36BC73",
"#	c #36BD74",
"$	c #35A369",
"%	c #33694F",
"&	c #32845A",
"*	c #37CB7B",
"=	c #3BCC7D",
"-	c #3DCC7F",
";	c #3ECD80",
">	c #36885E",
",	c #31664D",
"'	c #3CCC7E",
")	c #42CE82",
"!	c #46CF85",
"~	c #48CF85",
"{	c #33684E",
"]	c #33A568",
"^	c #3E9364",
"/	c #314037",
"(	c #314038",
"_	c #429366",
":	c #49D086",
"<	c #39A96E",
"[	c #36BF75",
"}	c #324038",
"|	c #4FD189",
"1	c #3CC17A",
"2	c #37BF76",
"3	c #52D28B",
"4	c #3DC17B",
"5	c #35A669",
"6	c #479569",
"7	c #3CAB71",
"8	c #32674E",
"9	c #356B4F",
"0	c #3B8F64",
"a	c #336A4F",
"b	c #39A76C",
"c	c #3CBF79",
"d	c #3DBF7A",
"e	c #3CA96F",
"f	c #346C4F",
"                 ",
"                 ",
"                 ",
"                 ",
"                 ",
"      .+@#$%     ",
"     &*=-;-=>    ",
"    ,*')!~!)'{   ",
"    ]=)^/(_:)<   ",
"    [-!/  }|!1   ",
"    2;~(  }3~4   ",
"    5-!_}}6|!7   ",
"    8=):|3|:)9   ",
"     >')!~!)0    ",
"      abcdef     ",
"                 ",
"                 ",
"                 ",
"                 ",
"                 "};
