/* XPM */
static char *floating_inactive[] = {
/* columns rows colors chars-per-pixel */
"29 32 42 1 ",
"  c #31664D",
". c #31674D",
"X c #32674E",
"o c #33684E",
"O c #33694F",
"+ c #336A4F",
"@ c #356B4F",
"# c #346C4F",
"$ c #32845A",
"% c #36885E",
"& c #3B8F64",
"* c #34A167",
"= c #35A369",
"- c #33A568",
"; c #35A669",
": c #39A76C",
"> c #39A96E",
", c #3CA96F",
"< c #3CAB71",
"1 c #36BC73",
"2 c #36BD74",
"3 c #36BF75",
"4 c #37BF76",
"5 c #3CBF79",
"6 c #3DBF7A",
"7 c #3CC17A",
"8 c #3DC17B",
"9 c #37CB7B",
"0 c #3BCC7D",
"q c #3CCC7E",
"w c #3DCC7F",
"e c #3ECD80",
"r c #42CE82",
"t c #46CF85",
"y c #48CF85",
"u c #49D086",
"i c #4FD189",
"p c #52D28B",
"a c #58D48E",
"s c #5BD58F",
"d c #63D793",
"f c None",
/* pixels */
"fffffffffffffffffffffffffffff",
"fffffffffffffffffffffffffffff",
"fffffffffffffffffffffffffffff",
"fffffffffffffffffffffffffffff",
"fffffffffffffffffffffffffffff",
"fffffffffffffffffffffffffffff",
"fffffffffffffffffffffffffffff",
"fffffffffffffffffffffffffffff",
"fffffffffffffffffffffffffffff",
"fffffffffffffffffffffffffffff",
"fffffffffffffffffffffffffffff",
"ffffffffffff *13=Offfffffffff",
"fffffffffff$90wwww%ffffffffff",
"ffffffffff 9wrtttrwofffffffff",
"ffffffffff-0ruipiur>fffffffff",
"ffffffffff3wtiasait7fffffffff",
"ffffffffff7etpsdspt8fffffffff",
"ffffffffff-wtissait<fffffffff",
"ffffffffff 0ryippurOfffffffff",
"fffffffffff%wrtytr&ffffffffff",
"ffffffffffffo>86,#fffffffffff",
"fffffffffffffffffffffffffffff",
"fffffffffffffffffffffffffffff",
"fffffffffffffffffffffffffffff",
"fffffffffffffffffffffffffffff",
"fffffffffffffffffffffffffffff",
"fffffffffffffffffffffffffffff",
"fffffffffffffffffffffffffffff",
"fffffffffffffffffffffffffffff",
"fffffffffffffffffffffffffffff",
"fffffffffffffffffffffffffffff",
"fffffffffffffffffffffffffffff"
};
