/* XPM */
static char * ontop_inactive_xpm[] = {
"17 20 2 1",
" 	c None",
".	c #5E5E5E",
"                 ",
"                 ",
"                 ",
"                 ",
"                 ",
"                 ",
"        ..       ",
"       ....      ",
"      ......     ",
"     ........    ",
"    ... .. ...   ",
"        ..       ",
"        ..       ",
"        ..       ",
"                 ",
"                 ",
"                 ",
"                 ",
"                 ",
"                 "};
