/* XPM */
static char *unfocused_inactive[] = {
/* columns rows colors chars-per-pixel */
"29 32 16 1 ",
"  c #4C4C4C",
". c gray30",
"X c #4E4E4E",
"o c gray31",
"O c #5F5F5F",
"+ c gray38",
"@ c gray39",
"# c #727272",
"$ c gray45",
"% c #747474",
"& c gray46",
"* c #767676",
"= c gray51",
"- c #838383",
"; c #8B8B8B",
": c None",
/* pixels */
":::::::::::::::::::::::::::::",
":::::::::::::::::::::::::::::",
":::::::::::::::::::::::::::::",
":::::::::::::::::::::::::::::",
":::::::::::::::::::::::::::::",
":::::::::::::::::::::::::::::",
":::::::::::::::::::::::::::::",
":::::::::::::::::::::::::::::",
":::::::::::::::::::::::::::::",
":::::::::::::::::::::::::::::",
":::::::::::::::::::::::::::::",
":::::::::::: #--% :::::::::::",
":::::::::::O;;;;;;+::::::::::",
":::::::::: ;;;;;;;; :::::::::",
"::::::::::%;;;;;;;;%:::::::::",
"::::::::::-;;;;;;;;-:::::::::",
"::::::::::-;;;;;;;;-:::::::::",
"::::::::::%;;;;;;;;*:::::::::",
":::::::::: ;;;;;;;;o:::::::::",
":::::::::::+;;;;;;@::::::::::",
":::::::::::: %--%o:::::::::::",
":::::::::::::::::::::::::::::",
":::::::::::::::::::::::::::::",
":::::::::::::::::::::::::::::",
":::::::::::::::::::::::::::::",
":::::::::::::::::::::::::::::",
":::::::::::::::::::::::::::::",
":::::::::::::::::::::::::::::",
":::::::::::::::::::::::::::::",
":::::::::::::::::::::::::::::",
":::::::::::::::::::::::::::::",
":::::::::::::::::::::::::::::"
};
