/* XPM */
static char *unfocused_active[] = {
/* columns rows colors chars-per-pixel */
"29 32 19 1 ",
"  c gray22",
". c #4C4C4C",
"X c gray30",
"o c #4E4E4E",
"O c gray31",
"+ c #5F5F5F",
"@ c gray38",
"# c gray39",
"$ c #676767",
"% c #686868",
"& c #727272",
"* c gray45",
"= c #747474",
"- c gray46",
"; c #767676",
": c gray51",
"> c #838383",
", c #8B8B8B",
"< c None",
/* pixels */
"<<<<<<<<<<<<<<<<<<<<<<<<<<<<<",
"<<<<<<<<<<<<<<<<<<<<<<<<<<<<<",
"<<<<<<<<<<<<<<<<<<<<<<<<<<<<<",
"<<<<<<<<<<<<<<<<<<<<<<<<<<<<<",
"<<<<<<<<<<<<<<<<<<<<<<<<<<<<<",
"<<<<<<<<<<<<<<<<<<<<<<<<<<<<<",
"<<<<<<<<<<<<<<<<<<<<<<<<<<<<<",
"<<<<<<<<<<<<<<<<<<<<<<<<<<<<<",
"<<<<<<<<<<<<<<<<<<<<<<<<<<<<<",
"<<<<<<<<<<<<<<<<<<<<<<<<<<<<<",
"<<<<<<<<<<<<<<<<<<<<<<<<<<<<<",
"<<<<<<<<<<<<.&>>=.<<<<<<<<<<<",
"<<<<<<<<<<<+,,,,,,@<<<<<<<<<<",
"<<<<<<<<<<.,,,,,,,,.<<<<<<<<<",
"<<<<<<<<<<=,,$  %,,=<<<<<<<<<",
"<<<<<<<<<<>,, << ,,><<<<<<<<<",
"<<<<<<<<<<>,, << ,,><<<<<<<<<",
"<<<<<<<<<<=,,$  %,,;<<<<<<<<<",
"<<<<<<<<<<.,,,,,,,,O<<<<<<<<<",
"<<<<<<<<<<<@,,,,,,$<<<<<<<<<<",
"<<<<<<<<<<<<O=>>&.<<<<<<<<<<<",
"<<<<<<<<<<<<<<<<<<<<<<<<<<<<<",
"<<<<<<<<<<<<<<<<<<<<<<<<<<<<<",
"<<<<<<<<<<<<<<<<<<<<<<<<<<<<<",
"<<<<<<<<<<<<<<<<<<<<<<<<<<<<<",
"<<<<<<<<<<<<<<<<<<<<<<<<<<<<<",
"<<<<<<<<<<<<<<<<<<<<<<<<<<<<<",
"<<<<<<<<<<<<<<<<<<<<<<<<<<<<<",
"<<<<<<<<<<<<<<<<<<<<<<<<<<<<<",
"<<<<<<<<<<<<<<<<<<<<<<<<<<<<<",
"<<<<<<<<<<<<<<<<<<<<<<<<<<<<<",
"<<<<<<<<<<<<<<<<<<<<<<<<<<<<<"
};
