/* XPM */
static char * ontop_active_xpm[] = {
"51 56 2 1",
" 	c None",
".	c #DCDCDC",
"                                                   ",
"                                                   ",
"                                                   ",
"                                                   ",
"                                                   ",
"                                                   ",
"                                                   ",
"                                                   ",
"                                                   ",
"                                                   ",
"                                                   ",
"                                                   ",
"                                                   ",
"                                                   ",
"                                                   ",
"                                                   ",
"                                                   ",
"                                                   ",
"                                                   ",
"                                                   ",
"                                                   ",
"                         ...                       ",
"                        .....                      ",
"                       .......                     ",
"                      .........                    ",
"                     ...........                   ",
"                    .............                  ",
"                   ...............                 ",
"                  .....  ...  .....                ",
"                         ...                       ",
"                         ...                       ",
"                         ...                       ",
"                         ...                       ",
"                         ...                       ",
"                         ...                       ",
"                                                   ",
"                                                   ",
"                                                   ",
"                                                   ",
"                                                   ",
"                                                   ",
"                                                   ",
"                                                   ",
"                                                   ",
"                                                   ",
"                                                   ",
"                                                   ",
"                                                   ",
"                                                   ",
"                                                   ",
"                                                   ",
"                                                   ",
"                                                   ",
"                                                   ",
"                                                   ",
"                                                   "};
