/* XPM */
static char * sticky_active_xpm[] = {
"51 56 7 1",
" 	c None",
".	c #F6B618",
"+	c #F5B119",
"@	c #F5B318",
"#	c #F5B219",
"$	c #F4AE1A",
"%	c #F3A71D",
"                                                   ",
"                                                   ",
"                                                   ",
"                                                   ",
"                                                   ",
"                                                   ",
"                                                   ",
"                                                   ",
"                                                   ",
"                                                   ",
"                                                   ",
"                                                   ",
"                                                   ",
"                                                   ",
"                                                   ",
"                                                   ",
"                                                   ",
"                                                   ",
"                                                   ",
"                                                   ",
"                       ......                      ",
"                     ..........                    ",
"                    ............                   ",
"                   ..............                  ",
"                   ..............                  ",
"                  .......  ......+                 ",
"                  ......    .....@                 ",
"                  .....      ....@                 ",
"                  .....      ....#                 ",
"                  ......    .....$                 ",
"                  .......  ......%                 ",
"                   ..............                  ",
"                   ..............                  ",
"                    ............                   ",
"                     ..........                    ",
"                       ......                      ",
"                                                   ",
"                                                   ",
"                                                   ",
"                                                   ",
"                                                   ",
"                                                   ",
"                                                   ",
"                                                   ",
"                                                   ",
"                                                   ",
"                                                   ",
"                                                   ",
"                                                   ",
"                                                   ",
"                                                   ",
"                                                   ",
"                                                   ",
"                                                   ",
"                                                   ",
"                                                   "};
