/* XPM */
static char * indicator_xpm[] = {
"100 1 2 1",
" 	c None",
".	c #606F81",
"  ................................................................................................  "};
