/* XPM */
static char * spiral_xpm[] = {
"42 42 2 1",
" 	c None",
".	c #81807E",
"                                          ",
"                                          ",
"                                          ",
"                                          ",
"                                          ",
"                                          ",
"                                          ",
"                                          ",
"                                          ",
"                                          ",
"                                          ",
"           ........  .........            ",
"           ........  .........            ",
"           ........  .........            ",
"           ........  .........            ",
"           ........  .........            ",
"           ........                       ",
"           ........                       ",
"           ........  .... ....            ",
"           ........  .... ....            ",
"           ........  .... ....            ",
"           ........  .... ....            ",
"           ........  .... ....            ",
"           ........       ....            ",
"           ........       ....            ",
"           ........  .... ....            ",
"           ........  .... ....            ",
"           ........  .... ....            ",
"           ........  .... ....            ",
"           ........  .... ....            ",
"                                          ",
"                                          ",
"                                          ",
"                                          ",
"                                          ",
"                                          ",
"                                          ",
"                                          ",
"                                          ",
"                                          ",
"                                          ",
"                                          "};
