/* XPM */
static char *ontop_active[] = {
/* columns rows colors chars-per-pixel */
"29 32 2 1 ",
"  c #DCDCDC",
". c None",
/* pixels */
".............................",
".............................",
".............................",
".............................",
".............................",
".............................",
".............................",
".............................",
".............................",
".............................",
".............................",
".............................",
"..............  .............",
".............    ............",
"............      ...........",
"...........        ..........",
"..........   .  .   .........",
"..............  .............",
"..............  .............",
"..............  .............",
".............................",
".............................",
".............................",
".............................",
".............................",
".............................",
".............................",
".............................",
".............................",
".............................",
".............................",
"............................."
};
