/* XPM */
static char *sticky_inactive[] = {
/* columns rows colors chars-per-pixel */
"29 32 20 1 ",
"  c #6B5726",
". c #6C5826",
"X c #6E5926",
"o c #6F5A26",
"O c #705B25",
"+ c #725C25",
"@ c #957322",
"# c #987621",
"$ c #9C7821",
"% c #BE8F1D",
"& c #BF901D",
"* c #C1921D",
"= c #C2931D",
"- c #C5941D",
"; c #C5951D",
": c #E3A919",
"> c #E2A81A",
", c #E5AA19",
"< c #F6B618",
"1 c None",
/* pixels */
"11111111111111111111111111111",
"11111111111111111111111111111",
"11111111111111111111111111111",
"11111111111111111111111111111",
"11111111111111111111111111111",
"11111111111111111111111111111",
"11111111111111111111111111111",
"11111111111111111111111111111",
"11111111111111111111111111111",
"11111111111111111111111111111",
"11111111111111111111111111111",
"111111111111.%>>*.11111111111",
"11111111111@<<<<<<#1111111111",
"1111111111 <<<<<<<<.111111111",
"1111111111*<<<<<<<<;111111111",
"1111111111,<<<<<<<<,111111111",
"1111111111,<<<<<<<<,111111111",
"1111111111=<<<<<<<<;111111111",
"1111111111.<<<<<<<<+111111111",
"11111111111#<<<<<<$1111111111",
"111111111111+*>>*+11111111111",
"11111111111111111111111111111",
"11111111111111111111111111111",
"11111111111111111111111111111",
"11111111111111111111111111111",
"11111111111111111111111111111",
"11111111111111111111111111111",
"11111111111111111111111111111",
"11111111111111111111111111111",
"11111111111111111111111111111",
"11111111111111111111111111111",
"11111111111111111111111111111"
};
