/* XPM */
static char * floating_active_xpm[] = {
"20 20 46 1",
" 	c None",
".	c #2D2D2D",
"+	c #31674D",
"@	c #34A167",
"#	c #36BC73",
"$	c #36BD74",
"%	c #35A369",
"&	c #33694F",
"*	c #32845A",
"=	c #37CB7B",
"-	c #3BCC7D",
";	c #3DCC7F",
">	c #3ECD80",
",	c #36885E",
"'	c #31664D",
")	c #3CCC7E",
"!	c #42CE82",
"~	c #46CF85",
"{	c #48CF85",
"]	c #33684E",
"^	c #33A568",
"/	c #3E9364",
"(	c #314037",
"_	c #314038",
":	c #429366",
"<	c #49D086",
"[	c #39A96E",
"}	c #36BF75",
"|	c #324038",
"1	c #4FD189",
"2	c #3CC17A",
"3	c #37BF76",
"4	c #52D28B",
"5	c #3DC17B",
"6	c #35A669",
"7	c #479569",
"8	c #3CAB71",
"9	c #32674E",
"0	c #356B4F",
"a	c #3B8F64",
"b	c #336A4F",
"c	c #39A76C",
"d	c #3CBF79",
"e	c #3DBF7A",
"f	c #3CA96F",
"g	c #346C4F",
"                    ",
"                    ",
"  ................  ",
"  ................  ",
"  ................  ",
"  .....+@#$%&.....  ",
"  ....*=-;>;-,....  ",
"  ...'=)!~{~!)]...  ",
"  ...^-!/(_:<![...  ",
"  ...};~(..|1~2...  ",
"  ...3>{_..|4{5...  ",
"  ...6;~:||71~8...  ",
"  ...9-!<141<!0...  ",
"  ....,)!~{~!a....  ",
"  .....bcdefg.....  ",
"  ................  ",
"  ................  ",
"  ................  ",
"                    ",
"                    "};
