/* XPM */
static char * floating_inactive_xpm[] = {
"17 20 42 1",
" 	c None",
".	c #31674D",
"+	c #34A167",
"@	c #36BC73",
"#	c #36BD74",
"$	c #35A369",
"%	c #33694F",
"&	c #32845A",
"*	c #37CB7B",
"=	c #3BCC7D",
"-	c #3DCC7F",
";	c #3ECD80",
">	c #36885E",
",	c #31664D",
"'	c #3CCC7E",
")	c #42CE82",
"!	c #46CF85",
"~	c #48CF85",
"{	c #33684E",
"]	c #33A568",
"^	c #49D086",
"/	c #4FD189",
"(	c #52D28B",
"_	c #39A96E",
":	c #36BF75",
"<	c #58D48E",
"[	c #5BD58F",
"}	c #3CC17A",
"|	c #37BF76",
"1	c #63D793",
"2	c #3DC17B",
"3	c #35A669",
"4	c #3CAB71",
"5	c #32674E",
"6	c #356B4F",
"7	c #3B8F64",
"8	c #336A4F",
"9	c #39A76C",
"0	c #3CBF79",
"a	c #3DBF7A",
"b	c #3CA96F",
"c	c #346C4F",
"                 ",
"                 ",
"                 ",
"                 ",
"                 ",
"      .+@#$%     ",
"     &*=-;-=>    ",
"    ,*')!~!)'{   ",
"    ]=)^/(/^)_   ",
"    :-!/<[</!}   ",
"    |;~([1[(~2   ",
"    3-!/<[</!4   ",
"    5=)^/(/^)6   ",
"     >')!~!)7    ",
"      890abc     ",
"                 ",
"                 ",
"                 ",
"                 ",
"                 "};
