/* XPM */
static char * unfocused_active_xpm[] = {
"20 20 20 1",
" 	c None",
".	c None",
"+	c #4C4C4C",
"@	c #727272",
"#	c #828282",
"$	c #737373",
"%	c #4E4E4E",
"&	c #5F5F5F",
"*	c #8B8B8B",
"=	c #616161",
"-	c #4D4D4D",
";	c #747474",
">	c #676767",
",	c #383838",
"'	c #686868",
")	c #757575",
"!	c #838383",
"~	c #767676",
"{	c #636363",
"]	c #4F4F4F",
"                    ",
"                    ",
"  ................  ",
"  ................  ",
"  ................  ",
"  .....+@##$%.....  ",
"  ....&******=....  ",
"  ...+********-...  ",
"  ...;**>,,'**)...  ",
"  ...!**,..,**!...  ",
"  ...!**,..,**!...  ",
"  ...;**>,,'**~...  ",
"  ...+********%...  ",
"  ....=******{....  ",
"  .....%;##;].....  ",
"  ................  ",
"  ................  ",
"  ................  ",
"                    ",
"                    "};
